<svg id="Logo" xmlns="http://www.w3.org/2000/svg" viewBox="0 0 137 28"><style/><path d="M49.9 3.1c2.3 0 4.2.5 5.5 1.4s2 2.3 2 4.1c0 .9-.2 1.7-.7 2.5-.5.7-1.2 1.3-2.1 1.6 1.2.3 2.1.8 2.7 1.6.6.8.9 1.8.9 2.9 0 1.9-.6 3.3-1.9 4.3S53.3 23 51 23H41v-2.4l2.1-.4V5.9L41 5.5V3.1h8.9zm-2.7 8.3H50c1.1 0 1.9-.2 2.5-.7s.9-1.1.9-1.9c0-.9-.3-1.6-.9-2-.6-.4-1.4-.7-2.6-.7h-2.7v5.3zm0 2.8v5.7h3.7c1.1 0 1.9-.2 2.4-.7.6-.5.8-1.1.8-2 0-1-.2-1.7-.7-2.2-.5-.5-1.2-.8-2.2-.8h-4zM67.6 3.1v2.4l-2.1.4v10.4c0 1.3.4 2.3 1.1 2.9.7.7 1.7 1 2.9 1s2.2-.3 2.9-1 1.1-1.6 1.1-3V5.9l-2.1-.4V3.1h8.2v2.4l-2.1.4v10.4c0 2.2-.7 4-2.2 5.2-1.5 1.2-3.4 1.8-5.8 1.8s-4.3-.6-5.8-1.8-2.2-2.9-2.2-5.2V5.9l-2.1-.4V3.1h8.2zm13.1 17.5l2.1-.4V5.9l-2.1-.4V3.1h8.1v2.4l-2 .4v5.3h1.7l3.8-5.6-1.2-.2V3.1H99v2.4l-2.2.4-4.8 6.5 5.5 7.9 2 .3V23h-7.9v-2.4l1.2-.2-3.8-5.7h-2.2v5.5l2 .4V23h-8.1v-2.4z" fill="#fefefe"/><path d="M113.6 14.3h-6.7V20h6.4l.2-2.4h3V23h-15.8v-2.4l2.1-.4V5.9l-2.1-.4V3.1h15.7v5.5h-3.1l-.2-2.4h-6.4v5h6.7v3.1zm17.9 0h-6.7V20h6.4l.2-2.4h3V23h-15.8v-2.4l2.1-.4V5.9l-2.1-.4V3.1h15.7v5.5h-3.1l-.2-2.4h-6.4v5h6.7v3.1z" fill="#65e496"/><g id="logo_icon" fill-rule="evenodd" clip-rule="evenodd"><path id="Rectangle_10_copy_3" d="M28 28L0 0h28v28z" fill="#65e496"/><path d="M28 0L0 28V0h28z" fill="#80809b"/></g></svg>